<svg width="320" height="120" viewBox="0 0 320 120" fill="none" xmlns="http://www.w3.org/2000/svg">
<mask id="path-1-inside-1_12_517" fill="white">
<path fill-rule="evenodd" clip-rule="evenodd" d="M300 85.031C300 78.6056 303.664 72.8833 308.218 68.3505C315.495 61.1068 320 51.0794 320 40C320 17.9086 302.091 0 280 0C268.921 0 258.893 4.50454 251.649 11.7821C247.117 16.3361 241.394 20 234.969 20H18C8.05888 20 0 28.0589 0 38V102C0 111.941 8.05888 120 18 120H282C291.941 120 300 111.941 300 102V85.031Z"/>
</mask>
<path fill-rule="evenodd" clip-rule="evenodd" d="M300 85.031C300 78.6056 303.664 72.8833 308.218 68.3505C315.495 61.1068 320 51.0794 320 40C320 17.9086 302.091 0 280 0C268.921 0 258.893 4.50454 251.649 11.7821C247.117 16.3361 241.394 20 234.969 20H18C8.05888 20 0 28.0589 0 38V102C0 111.941 8.05888 120 18 120H282C291.941 120 300 111.941 300 102V85.031Z" fill="#FED1B0"/>
<path d="M251.649 11.7821L253.776 13.8985L251.649 11.7821ZM308.218 68.3505L310.334 70.4768L308.218 68.3505ZM317 40C317 50.2493 312.837 59.5205 306.102 66.2243L310.334 70.4768C318.154 62.6931 323 51.9096 323 40H317ZM280 3C300.435 3 317 19.5655 317 40H323C323 16.2518 303.748 -3 280 -3V3ZM253.776 13.8985C260.48 7.16338 269.751 3 280 3V-3C268.09 -3 257.307 1.84569 249.523 9.66574L253.776 13.8985ZM18 23H234.969V17H18V23ZM3 102V38H-3V102H3ZM282 117H18V123H282V117ZM297 85.031V102H303V85.031H297ZM-3 102C-3 113.598 6.40202 123 18 123V117C9.71573 117 3 110.284 3 102H-3ZM18 17C6.40202 17 -3 26.402 -3 38H3C3 29.7157 9.71573 23 18 23V17ZM249.523 9.66574C245.235 13.9741 240.237 17 234.969 17V23C242.552 23 248.998 18.6982 253.776 13.8985L249.523 9.66574ZM282 123C293.598 123 303 113.598 303 102H297C297 110.284 290.284 117 282 117V123ZM306.102 66.2243C301.302 71.0016 297 77.4477 297 85.031H303C303 79.7635 306.026 74.7651 310.334 70.4768L306.102 66.2243Z" fill="white" fill-opacity="0.35" mask="url(#path-1-inside-1_12_517)"/>
</svg>
